<?xml version="1.0" standalone="no"?>
<!DOCTYPE svg PUBLIC "-//W3C//DTD SVG 20010904//EN"
 "http://www.w3.org/TR/2001/REC-SVG-20010904/DTD/svg10.dtd">
<svg version="1.0" xmlns="http://www.w3.org/2000/svg"
 width="512.000000pt" height="512.000000pt" viewBox="0 0 512.000000 512.000000"
 preserveAspectRatio="xMidYMid meet">
<metadata>
Created by potrace 1.11, written by Peter Selinger 2001-2013
</metadata>
<g transform="translate(0.000000,512.000000) scale(0.100000,-0.100000)"
fill="#000000" stroke="none">
<path d="M2316 4863 c-4 -4 -26 -8 -91 -17 -79 -10 -120 -17 -135 -22 -8 -3
-28 -8 -45 -11 -16 -2 -44 -8 -61 -14 -17 -5 -40 -11 -50 -13 -25 -5 -149 -44
-199 -63 -56 -20 -249 -106 -255 -113 -3 -3 -34 -20 -70 -39 -122 -65 -388
-252 -398 -282 -2 -5 -10 -9 -18 -9 -8 0 -14 -7 -14 -15 0 -8 -4 -15 -9 -15
-11 0 -145 -132 -201 -199 -25 -30 -54 -64 -65 -76 -11 -12 -24 -29 -30 -38
-27 -42 -131 -193 -135 -197 -3 -3 -19 -32 -35 -65 -17 -33 -33 -62 -37 -65
-24 -19 -188 -424 -188 -465 0 -9 -4 -25 -10 -35 -8 -15 -30 -122 -45 -215 -2
-11 -5 -32 -8 -46 -27 -141 -29 -538 -3 -674 2 -11 7 -42 10 -68 4 -27 10 -59
12 -70 3 -12 7 -35 9 -52 3 -16 12 -55 20 -85 9 -30 18 -63 20 -73 16 -71 98
-274 158 -392 16 -33 37 -73 45 -90 17 -33 113 -187 122 -195 3 -3 23 -30 45
-60 22 -30 42 -57 45 -60 3 -3 17 -21 30 -40 35 -50 283 -300 298 -300 6 0 12
-4 12 -8 0 -5 18 -21 40 -38 23 -16 51 -37 63 -47 12 -10 34 -26 50 -35 15 -9
27 -20 27 -24 0 -4 7 -8 15 -8 8 0 15 -4 15 -10 0 -5 7 -10 15 -10 8 0 15 -4
15 -10 0 -5 4 -10 9 -10 8 0 109 -57 161 -90 8 -6 26 -15 40 -20 14 -6 33 -14
42 -20 62 -36 256 -109 393 -148 138 -40 165 -46 262 -57 18 -2 36 -6 41 -9
38 -23 622 -25 661 -2 3 2 26 7 51 10 196 27 427 98 636 197 33 16 66 29 72
29 6 0 12 4 14 8 2 4 28 21 58 36 30 16 57 31 60 35 3 3 21 15 40 25 19 11 67
42 105 70 67 48 86 62 171 131 57 46 234 224 278 280 22 28 45 55 51 60 5 6
18 21 27 35 10 14 35 50 57 80 23 30 50 71 61 90 11 19 30 51 42 70 28 47 138
267 138 277 0 4 7 22 16 38 9 17 18 37 20 45 2 8 15 49 30 90 54 155 91 340
111 545 17 188 3 469 -33 645 -9 41 -18 86 -20 100 -13 80 -96 322 -152 445
-26 55 -49 102 -52 105 -3 3 -16 27 -29 54 -39 80 -196 310 -250 368 -9 9 -36
40 -61 69 -120 139 -301 295 -469 404 -38 25 -74 45 -79 45 -6 0 -12 4 -14 9
-5 13 -224 124 -323 163 -93 37 -183 67 -222 74 -12 2 -34 9 -49 14 -22 9 -65
19 -199 46 -38 8 -110 17 -142 18 -18 1 -33 4 -33 7 0 7 -477 9 -484 2z m427
-237 c42 -3 94 -8 115 -11 35 -5 48 -7 112 -20 14 -2 36 -7 50 -9 38 -8 162
-42 190 -54 14 -5 27 -9 30 -9 6 1 95 -31 140 -50 112 -48 233 -112 309 -161
47 -31 90 -59 95 -61 14 -6 97 -69 133 -102 18 -16 35 -29 38 -29 8 0 196
-191 242 -245 214 -257 369 -563 442 -875 17 -75 23 -106 37 -195 2 -11 6 -36
10 -55 4 -19 7 -125 7 -235 1 -179 -3 -254 -18 -335 -2 -14 -6 -41 -9 -60 -30
-206 -165 -566 -267 -712 -11 -14 -19 -29 -19 -32 0 -3 -16 -29 -35 -56 -19
-27 -35 -54 -35 -59 0 -5 -7 -11 -15 -15 -8 -3 -15 -12 -15 -20 0 -8 -3 -16
-7 -18 -5 -1 -28 -28 -53 -58 -75 -92 -178 -199 -259 -268 -14 -12 -35 -30
-46 -40 -31 -27 -153 -114 -220 -157 -190 -121 -501 -247 -690 -279 -16 -3
-41 -7 -55 -11 -116 -27 -390 -37 -607 -22 -57 4 -108 9 -115 12 -7 2 -26 6
-43 9 -165 27 -369 92 -496 157 -20 11 -44 19 -52 19 -8 0 -17 3 -19 8 -1 4
-37 25 -78 46 -164 85 -331 210 -490 367 -61 60 -181 201 -220 259 -14 19 -28
40 -32 45 -28 35 -93 148 -145 251 -109 216 -167 410 -210 694 -10 71 -10 436
0 515 25 192 87 421 156 583 51 116 171 334 218 392 6 8 40 51 74 95 105 135
300 321 424 405 28 19 52 37 53 42 2 4 7 8 12 8 5 0 35 18 68 39 124 83 452
223 572 245 14 2 27 6 30 7 3 1 10 3 15 4 6 2 12 4 15 5 7 2 41 9 75 14 17 3
44 8 60 11 66 13 84 15 180 21 55 3 101 7 102 8 4 3 172 -2 246 -8z"/>
<path d="M2498 4375 c-2 -2 -15 -6 -28 -8 -95 -18 -256 -151 -341 -282 -61
-93 -110 -175 -104 -175 2 0 -9 -26 -24 -57 -52 -106 -150 -411 -166 -520 l-7
-43 736 0 c405 0 736 3 736 8 0 14 -51 218 -70 277 -47 152 -118 326 -163 400
-89 146 -116 183 -182 248 -106 104 -192 147 -307 152 -42 2 -78 1 -80 0z"/>
<path d="M1880 4249 c-311 -121 -608 -344 -805 -605 -33 -43 -63 -80 -67 -82
-5 -2 -8 -8 -8 -13 0 -5 -15 -32 -34 -61 -31 -50 -106 -187 -106 -195 0 -2
158 -2 352 -1 l351 3 4 30 c2 17 8 41 13 55 5 14 11 39 14 55 8 47 33 131 71
240 19 55 37 107 39 116 20 77 149 328 221 428 21 29 36 53 34 55 -2 2 -38 -9
-79 -25z"/>
<path d="M3217 4196 c70 -104 183 -335 223 -456 17 -52 36 -104 41 -115 10
-22 68 -243 75 -284 3 -14 7 -32 9 -38 3 -10 84 -13 355 -13 l351 0 -45 84
c-48 91 -140 235 -175 276 -12 14 -38 45 -59 69 -130 152 -333 322 -487 407
-106 58 -150 80 -210 103 -38 15 -79 32 -90 36 -42 17 -41 11 12 -69z"/>
<path d="M741 2963 c-12 -49 -26 -122 -32 -163 -5 -41 -13 -95 -16 -120 -12
-86 -6 -344 11 -453 16 -104 49 -258 59 -274 3 -5 173 -8 379 -8 l373 0 -1 30
c-1 17 -5 53 -8 80 -26 233 -27 700 -1 875 2 14 6 46 10 73 l6 47 -380 0 -379
0 -21 -87z"/>
<path d="M1779 3018 c-1 -37 -2 -51 -15 -158 -11 -90 -12 -632 -2 -710 4 -30
10 -82 13 -115 4 -33 8 -67 11 -75 3 -13 98 -15 779 -15 426 0 775 2 776 5 0
3 2 14 4 25 34 196 40 819 10 970 -3 17 -8 44 -9 60 -2 17 -4 33 -5 38 0 4
-352 7 -781 7 l-780 0 -1 -32z"/>
<path d="M3615 2988 c4 -35 9 -79 10 -98 2 -19 6 -75 11 -125 9 -114 9 -438 0
-530 -4 -38 -9 -97 -11 -130 -2 -32 -7 -80 -10 -106 -4 -33 -2 -48 7 -51 7 -2
177 -4 377 -4 l365 1 23 95 c12 52 25 118 29 145 3 28 7 52 9 55 8 14 17 169
16 280 -2 145 -4 160 -20 260 -17 101 -17 104 -38 190 l-18 75 -379 3 -378 2
7 -62z"/>
<path d="M864 1701 c-2 -2 15 -38 38 -80 23 -42 49 -89 57 -106 52 -96 203
-279 332 -401 155 -146 437 -321 604 -374 22 -7 46 -17 53 -23 22 -17 13 8
-18 51 -17 23 -30 46 -30 51 0 6 -6 14 -14 18 -17 11 -158 298 -192 393 -14
41 -42 127 -61 190 -34 115 -39 130 -48 173 -4 18 -13 58 -21 90 -1 4 -2 10
-3 15 -1 7 -689 10 -697 3z"/>
<path d="M1847 1702 c-18 -4 -17 -29 3 -107 10 -38 14 -56 24 -100 15 -67 86
-263 127 -353 16 -35 29 -65 29 -67 0 -3 20 -39 45 -80 148 -251 310 -375 488
-375 227 0 422 195 598 595 29 66 106 322 123 405 2 14 8 39 11 55 l7 30 -719
0 c-396 0 -727 -1 -736 -3z"/>
<path d="M3570 1702 c-5 -2 -10 -12 -10 -23 0 -36 -79 -321 -106 -386 -8 -17
-14 -35 -14 -40 0 -12 -82 -209 -110 -263 -34 -66 -109 -190 -138 -228 -14
-18 -22 -35 -19 -39 8 -7 106 32 217 87 158 78 321 188 440 298 30 29 58 52
63 52 4 0 7 4 7 9 0 5 20 30 45 56 63 65 165 198 212 275 43 70 113 199 110
201 -5 3 -688 4 -697 1z"/>
</g>
</svg>
