<?xml version="1.0"?><!DOCTYPE svg PUBLIC "-//W3C//DTD SVG 1.1//EN" "http://www.w3.org/Graphics/SVG/1.1/DTD/svg11.dtd"><svg xmlns="http://www.w3.org/2000/svg" xmlns:xlink="http://www.w3.org/1999/xlink"><symbol viewBox="0 0 492 492" id="cross" xmlns="http://www.w3.org/2000/svg"><path d="M300.188 246L484.14 62.04c5.06-5.064 7.852-11.82 7.86-19.024 0-7.208-2.792-13.972-7.86-19.028L468.02 7.872C462.952 2.796 456.196.016 448.984.016c-7.2 0-13.956 2.78-19.024 7.856L246.008 191.82 62.048 7.872C56.988 2.796 50.228.016 43.02.016c-7.2 0-13.96 2.78-19.02 7.856L7.872 23.988c-10.496 10.496-10.496 27.568 0 38.052L191.828 246 7.872 429.952C2.808 435.024.02 441.78.02 448.984c0 7.204 2.788 13.96 7.852 19.028l16.124 16.116c5.06 5.072 11.824 7.856 19.02 7.856 7.208 0 13.968-2.784 19.028-7.856l183.96-183.952 183.952 183.952c5.068 5.072 11.824 7.856 19.024 7.856h.008c7.204 0 13.96-2.784 19.028-7.856l16.12-16.116c5.06-5.064 7.852-11.824 7.852-19.028 0-7.204-2.792-13.96-7.852-19.028L300.188 246z" data-original="#000000" class="aactive-path" data-old_color="#000000" fill="#FF4F4F"/></symbol><symbol viewBox="0 0 479.058 479.058" id="email" xmlns="http://www.w3.org/2000/svg"><path d="M434.146 59.882H44.912C20.146 59.882 0 80.028 0 104.794v269.47c0 24.766 20.146 44.912 44.912 44.912h389.234c24.766 0 44.912-20.146 44.912-44.912v-269.47c0-24.766-20.146-44.912-44.912-44.912zm0 29.941c2.034 0 3.969.422 5.738 1.159L239.529 264.631 39.173 90.982a14.902 14.902 0 015.738-1.159zm0 299.411H44.912c-8.26 0-14.971-6.71-14.971-14.971V122.615l199.778 173.141c2.822 2.441 6.316 3.655 9.81 3.655s6.988-1.213 9.81-3.655l199.778-173.141v251.649c-.001 8.26-6.711 14.97-14.971 14.97z"/></symbol><symbol viewBox="0 0 24 24" id="facebook" xmlns="http://www.w3.org/2000/svg"><path d="M15.997 3.985h2.191V.169C17.81.117 16.51 0 14.996 0c-3.159 0-5.323 1.987-5.323 5.639V9H6.187v4.266h3.486V24h4.274V13.267h3.345l.531-4.266h-3.877V6.062c.001-1.233.333-2.077 2.051-2.077z"/></symbol><symbol viewBox="0 0 511.999 511.999" id="hotel" xmlns="http://www.w3.org/2000/svg"><circle cx="255.999" cy="255.999" r="255.999" fill="#27d1cf"/><path d="M499.339 153.412v182.313a254.213 254.213 0 01-15.6 37.303 250.591 250.591 0 01-12.936 22.267c-45.631 70.248-124.792 116.704-214.799 116.704-90.018 0-169.179-46.456-214.81-116.704a255.699 255.699 0 01-12.936-22.267 255.72 255.72 0 01-15.6-37.334V153.412c0-7.69 6.238-13.928 13.928-13.928H485.41c7.691-.001 13.929 6.237 13.929 13.928z" fill="#d6c1a8"/><path d="M403.323 17.126v448.25a255.091 255.091 0 01-36.498 21.452 280.345 280.345 0 01-7.178 3.323 254.646 254.646 0 01-29.142 10.836 243.88 243.88 0 01-13.793 3.762 235.08 235.08 0 01-9.028 2.027 256.744 256.744 0 01-17.607 2.978c-2.999.397-6.008.742-9.028 1.034A257.577 257.577 0 01256.003 512c-8.453 0-16.812-.408-25.057-1.212-3.03-.293-6.039-.637-9.028-1.045a250.847 250.847 0 01-17.607-2.967 235.506 235.506 0 01-9.028-2.027 251.217 251.217 0 01-13.772-3.762 253.069 253.069 0 01-29.142-10.836 250.082 250.082 0 01-7.199-3.333 242.001 242.001 0 01-9.028-4.556 258.22 258.22 0 01-27.47-16.886V17.126C108.673 7.67 116.343 0 125.799 0h260.398c9.457 0 17.126 7.67 17.126 17.126z" fill="#e8d4bb"/><g fill="#ff6954"><path d="M174.93 108.704h-15.673v21.345c0 2.52-3.072 3.78-6.143 3.78-3.072 0-6.144-1.26-6.144-3.78V79.955c0-2.6 3.072-3.702 6.144-3.702 3.071 0 6.143 1.102 6.143 3.702v19.296h15.673V79.955c0-2.6 3.072-3.702 6.144-3.702 3.071 0 6.143 1.102 6.143 3.702v50.092c0 2.52-3.072 3.78-6.143 3.78-3.072 0-6.144-1.26-6.144-3.78v-21.343zM199.036 115.714V94.841c0-13.547 8.427-18.588 19.297-18.588 10.87 0 19.376 5.041 19.376 18.588v20.873c0 13.547-8.507 18.588-19.376 18.588-10.869-.001-19.297-5.041-19.297-18.588zm26.386-20.873c0-5.435-2.678-7.876-7.089-7.876-4.41 0-7.009 2.441-7.009 7.876v20.873c0 5.435 2.599 7.876 7.009 7.876 4.411 0 7.089-2.441 7.089-7.876V94.841zM282.766 76.253c2.599 0 3.701 2.835 3.701 5.435 0 2.993-1.339 5.592-3.701 5.592h-10.869v42.769c0 2.52-3.072 3.78-6.143 3.78-3.072 0-6.144-1.26-6.144-3.78V87.28h-10.869c-2.364 0-3.702-2.599-3.702-5.592 0-2.6 1.102-5.435 3.702-5.435h34.025zM307.58 100.276h11.815c2.362 0 3.702 2.284 3.702 4.804 0 2.126-1.103 4.647-3.702 4.647H307.58v13.389h21.108c2.362 0 3.702 2.52 3.702 5.435 0 2.52-1.102 5.277-3.702 5.277h-28.039c-2.678 0-5.356-1.26-5.356-3.78V80.034c0-2.52 2.678-3.78 5.356-3.78h28.039c2.6 0 3.702 2.756 3.702 5.277 0 2.914-1.34 5.435-3.702 5.435H307.58v13.31zM347.043 133.829c-2.678 0-5.356-1.26-5.356-3.78V79.955c0-2.6 3.072-3.702 6.143-3.702 3.072 0 6.144 1.102 6.144 3.702v43.162h17.958c2.363 0 3.544 2.678 3.544 5.355 0 2.678-1.182 5.356-3.544 5.356h-24.888v.001z"/></g><g fill="#f48944"><path d="M349.8 19.17l6.249 12.663 13.975 2.03-10.113 9.858 2.388 13.918-12.499-6.572-12.5 6.572 2.387-13.918-10.112-9.858 13.974-2.03zM302.899 19.17l6.249 12.663 13.975 2.03-10.112 9.858 2.387 13.918-12.499-6.572-12.499 6.572 2.386-13.918-10.111-9.858 13.974-2.03zM255.998 19.17l6.25 12.663 13.974 2.03-10.112 9.858 2.387 13.918-12.499-6.572-12.5 6.572 2.388-13.918-10.113-9.858 13.976-2.03zM209.097 19.17l6.25 12.663 13.975 2.03-10.112 9.858 2.386 13.918-12.499-6.572-12.499 6.572 2.388-13.918-10.113-9.858 13.975-2.03zM162.197 19.17l6.25 12.663 13.974 2.03-10.112 9.858 2.387 13.918-12.499-6.572-12.499 6.572 2.387-13.918-10.112-9.858 13.975-2.03z"/></g><path d="M136.145 252.947v-83.49a8.588 8.588 0 018.588-8.588h50.989a8.588 8.588 0 018.588 8.588v83.49a8.588 8.588 0 01-8.588 8.588h-50.989a8.587 8.587 0 01-8.588-8.588z" fill="#d6c1a8"/><g fill="#4a5370"><path d="M145.178 169.9h50.106v52.736h-50.106zM145.178 233.472h50.106v19.033h-50.106z"/></g><path d="M221.916 252.947v-83.49a8.588 8.588 0 018.588-8.588h50.989a8.588 8.588 0 018.588 8.588v83.49a8.588 8.588 0 01-8.588 8.588h-50.989a8.588 8.588 0 01-8.588-8.588z" fill="#d6c1a8"/><g fill="#4a5370"><path d="M230.943 169.9h50.106v52.736h-50.106zM230.943 233.472h50.106v19.033h-50.106z"/></g><path d="M307.688 252.947v-83.49a8.588 8.588 0 018.588-8.588h50.989a8.588 8.588 0 018.588 8.588v83.49a8.588 8.588 0 01-8.588 8.588h-50.989a8.588 8.588 0 01-8.588-8.588z" fill="#d6c1a8"/><g fill="#4a5370"><path d="M316.718 169.9h50.106v52.736h-50.106zM316.718 233.472h50.106v19.033h-50.106z"/></g><path d="M415.571 252.947v-83.49a8.588 8.588 0 018.588-8.588h50.989a8.588 8.588 0 018.588 8.588v83.49a8.588 8.588 0 01-8.588 8.588h-50.989a8.587 8.587 0 01-8.588-8.588z" fill="#e8d4bb"/><g fill="#4a5370"><path d="M424.604 169.9h50.106v52.736h-50.106zM424.604 233.472h50.106v19.033h-50.106z"/></g><path d="M483.739 303.218v69.81a250.591 250.591 0 01-12.936 22.267h-46.644a8.588 8.588 0 01-8.589-8.589v-83.487a8.588 8.588 0 018.589-8.589h50.991a8.588 8.588 0 018.589 8.588z" fill="#e8d4bb"/><g fill="#4a5370"><path d="M424.604 303.657h50.106v52.736h-50.106zM424.604 367.229h50.106v19.033h-50.106z"/></g><path d="M28.262 252.947v-83.49a8.588 8.588 0 018.588-8.588h50.989a8.588 8.588 0 018.588 8.588v83.49a8.588 8.588 0 01-8.588 8.588h-50.99a8.588 8.588 0 01-8.587-8.588z" fill="#e8d4bb"/><g fill="#4a5370"><path d="M37.291 169.9h50.106v52.736H37.291zM37.291 233.472h50.106v19.033H37.291z"/></g><path d="M96.427 303.218v83.487a8.588 8.588 0 01-8.589 8.589H41.194a255.699 255.699 0 01-12.936-22.267v-69.81a8.588 8.588 0 018.589-8.589h50.991a8.59 8.59 0 018.589 8.59z" fill="#e8d4bb"/><g fill="#4a5370"><path d="M37.291 303.657h50.106v52.736H37.291zM37.291 367.229h50.106v19.033H37.291z"/></g><path d="M136.145 386.705v-83.49a8.588 8.588 0 018.588-8.588h50.989a8.588 8.588 0 018.588 8.588v83.49a8.588 8.588 0 01-8.588 8.588h-50.989a8.587 8.587 0 01-8.588-8.588z" fill="#d6c1a8"/><g fill="#4a5370"><path d="M145.178 303.657h50.106v52.736h-50.106zM145.178 367.229h50.106v19.033h-50.106z"/></g><path d="M221.916 386.705v-83.49a8.588 8.588 0 018.588-8.588h50.989a8.588 8.588 0 018.588 8.588v83.49a8.588 8.588 0 01-8.588 8.588h-50.989a8.588 8.588 0 01-8.588-8.588z" fill="#d6c1a8"/><g fill="#4a5370"><path d="M230.943 303.657h50.106v52.736h-50.106zM230.943 367.229h50.106v19.033h-50.106z"/></g><path d="M307.688 386.705v-83.49a8.588 8.588 0 018.588-8.588h50.989a8.588 8.588 0 018.588 8.588v83.49a8.588 8.588 0 01-8.588 8.588h-50.989a8.588 8.588 0 01-8.588-8.588z" fill="#d6c1a8"/><g fill="#4a5370"><path d="M316.718 303.657h50.106v52.736h-50.106zM316.718 367.229h50.106v19.033h-50.106z"/></g><path d="M204.313 436.975v69.799a235.08 235.08 0 01-9.028-2.027 251.217 251.217 0 01-13.772-3.762 253.069 253.069 0 01-29.142-10.836 250.082 250.082 0 01-7.199-3.333 242.001 242.001 0 01-9.028-4.556v-45.286a8.588 8.588 0 018.589-8.589h50.991a8.591 8.591 0 018.589 8.59z" fill="#d6c1a8"/><g fill="#4a5370"><path d="M195.285 437.414v52.736h-42.914a250.082 250.082 0 01-7.199-3.333v-49.403h50.113zM195.285 500.986v3.762a251.217 251.217 0 01-13.772-3.762h13.772z"/></g><path d="M290.078 436.975v72.777c-2.999.397-6.008.742-9.028 1.034a257.577 257.577 0 01-25.046 1.212c-8.453 0-16.812-.408-25.057-1.212-3.03-.293-6.04-.637-9.028-1.045v-72.767a8.588 8.588 0 018.589-8.589h50.98a8.591 8.591 0 018.59 8.59z" fill="#d6c1a8"/><g fill="#4a5370"><path d="M230.943 437.414h50.106v68.796h-50.106z"/><path d="M281.05 500.986v9.801a257.577 257.577 0 01-25.046 1.212c-8.453 0-16.812-.408-25.057-1.212v-9.801h50.103z"/></g><path d="M375.853 436.975v45.286a260.356 260.356 0 01-16.206 7.889 254.646 254.646 0 01-29.142 10.836 243.88 243.88 0 01-13.793 3.762 235.08 235.08 0 01-9.028 2.027v-69.799a8.588 8.588 0 018.589-8.589h50.991a8.588 8.588 0 018.589 8.588z" fill="#d6c1a8"/><g fill="#4a5370"><path d="M366.825 437.414v49.413a280.345 280.345 0 01-7.178 3.323h-42.935v-52.736h50.113zM330.505 500.986a243.88 243.88 0 01-13.793 3.762v-3.762h13.793z"/></g></symbol><symbol viewBox="0 0 512.001 512.001" id="instagram" xmlns="http://www.w3.org/2000/svg"><path d="M373.406 0H138.594C62.172 0 0 62.172 0 138.594V373.41C0 449.828 62.172 512 138.594 512H373.41C449.828 512 512 449.828 512 373.41V138.594C512 62.172 449.828 0 373.406 0zM256 395.996c-77.195 0-139.996-62.8-139.996-139.996S178.804 116.004 256 116.004 395.996 178.804 395.996 256 333.196 395.996 256 395.996zM399.344 149.02c-22.813 0-41.367-18.555-41.367-41.368s18.554-41.37 41.367-41.37 41.37 18.558 41.37 41.37-18.558 41.368-41.37 41.368zm0 0"/><path d="M256 146.02c-60.64 0-109.98 49.335-109.98 109.98 0 60.64 49.34 109.98 109.98 109.98 60.645 0 109.98-49.34 109.98-109.98 0-60.645-49.335-109.98-109.98-109.98zm0 0M399.344 96.3c-6.258 0-11.352 5.095-11.352 11.352 0 6.258 5.094 11.352 11.352 11.352 6.261 0 11.355-5.09 11.355-11.352 0-6.261-5.094-11.351-11.355-11.351zm0 0"/></symbol><symbol viewBox="0 0 124 124" id="menu" xmlns="http://www.w3.org/2000/svg"><path d="M112 6H12C5.4 6 0 11.4 0 18s5.4 12 12 12h100c6.6 0 12-5.4 12-12s-5.4-12-12-12zM112 50H12C5.4 50 0 55.4 0 62s5.4 12 12 12h100c6.6 0 12-5.4 12-12s-5.4-12-12-12zM112 94H12c-6.6 0-12 5.4-12 12s5.4 12 12 12h100c6.6 0 12-5.4 12-12s-5.4-12-12-12z"/></symbol><symbol viewBox="0 0 310 310" id="youtube" xmlns="http://www.w3.org/2000/svg"><path d="M297.917 64.645c-11.19-13.302-31.85-18.728-71.306-18.728H83.386c-40.359 0-61.369 5.776-72.517 19.938C0 79.663 0 100.008 0 128.166v53.669c0 54.551 12.896 82.248 83.386 82.248h143.226c34.216 0 53.176-4.788 65.442-16.527C304.633 235.518 310 215.863 310 181.835v-53.669c0-29.695-.841-50.16-12.083-63.521zm-98.896 97.765l-65.038 33.991a9.997 9.997 0 01-14.632-8.863v-67.764a10 10 0 0114.609-8.874l65.038 33.772a10 10 0 01.023 17.738z"/></symbol></svg>